<svg xmlns="http://www.w3.org/2000/svg" viewBox="0 0 64 64">
  <g transform="translate(7.65 48.55) scale(0.04443 -0.04443)">
    <path d="M56 341Q57 426 54.5 509.5Q52 593 32 676Q27 695 37.0 707.5Q47 720 61.5 724.0Q76 728 90.0 722.0Q104 716 109 697Q130 612 132.0 525.5Q134 439 133 351Q164 348 195.0 344.5Q226 341 257.0 339.5Q288 338 318.5 339.5Q349 341 379 349Q387 352 396 350Q399 395 404.0 438.5Q409 482 410 527Q412 575 408.0 622.0Q404 669 399 717Q397 733 410.0 745.0Q423 757 439 757Q456 757 466.0 745.0Q476 733 478 717Q483 669 487.5 622.0Q492 575 490 527Q488 479 482.5 433.5Q477 388 475 340Q470 262 468.0 183.5Q466 105 471 27Q472 7 460.0 -2.5Q448 -12 433.0 -12.0Q418 -12 405.0 -2.5Q392 7 391 27Q387 87 387.5 148.0Q388 209 391 270Q359 262 327.0 260.5Q295 259 263.0 260.5Q231 262 198.5 265.5Q166 269 134 272Q135 216 139.5 161.0Q144 106 158 51Q163 32 153.5 19.5Q144 7 129.5 3.0Q115 -1 100.5 5.0Q86 11 82 30Q65 94 61.0 158.5Q57 223 56 289Q48 300 48.0 315.0Q48 330 56 341Z M1015 190Q1030 195 1044.5 186.0Q1059 177 1064 162Q1069 145 1060.0 131.5Q1051 118 1036 113Q981 93 928.0 70.5Q875 48 818 33Q790 25 761.0 20.5Q732 16 703.5 16.0Q675 16 647.0 23.0Q619 30 593 45Q578 53 574.5 69.0Q571 85 578 99Q617 180 667.5 251.5Q718 323 776 391Q823 446 869.0 500.0Q915 554 957 614Q918 631 875.0 639.5Q832 648 788.5 649.5Q745 651 701.5 647.0Q658 643 618 635Q602 632 588.0 639.0Q574 646 569 663Q565 678 572.5 693.5Q580 709 597 712Q650 722 707.0 726.5Q764 731 821.0 726.5Q878 722 932.5 706.5Q987 691 1035 663Q1049 655 1053.5 639.0Q1058 623 1050 609Q1003 537 949.0 473.0Q895 409 840 344Q791 286 747.5 226.0Q704 166 668 100Q704 91 742.0 97.5Q780 104 815 115Q866 130 915.0 150.5Q964 171 1015 190Z" fill="#000"/>
  </g>
</svg>